<?xml version="1.0" encoding="UTF-8" standalone="no"?>
<svg
   class="svglite"
   width="362.25pt"
   height="231.75789pt"
   viewBox="0 0 362.25 231.75789"
   version="1.1"
   id="svg295"
   sodipodi:docname="Figure3b.svg"
   inkscape:version="1.1 (c68e22c387, 2021-05-23)"
   inkscape:export-filename="C:\Artigos e resumos publicados submetidos ideias\Em desenvolvimento\Endangered flora and Management plans\Biological conservation\Figures\Figure3.jpg"
   inkscape:export-xdpi="600"
   inkscape:export-ydpi="600"
   xmlns:inkscape="http://www.inkscape.org/namespaces/inkscape"
   xmlns:sodipodi="http://sodipodi.sourceforge.net/DTD/sodipodi-0.dtd"
   xmlns="http://www.w3.org/2000/svg"
   xmlns:svg="http://www.w3.org/2000/svg">
  <sodipodi:namedview
     id="namedview297"
     pagecolor="#ffffff"
     bordercolor="#666666"
     borderopacity="1.0"
     inkscape:pageshadow="2"
     inkscape:pageopacity="0.0"
     inkscape:pagecheckerboard="0"
     inkscape:document-units="pt"
     showgrid="false"
     fit-margin-top="0"
     fit-margin-left="0"
     fit-margin-right="0"
     fit-margin-bottom="0"
     inkscape:zoom="0.84516097"
     inkscape:cx="71.583997"
     inkscape:cy="81.049649"
     inkscape:window-width="1920"
     inkscape:window-height="1001"
     inkscape:window-x="-9"
     inkscape:window-y="-9"
     inkscape:window-maximized="1"
     inkscape:current-layer="svg295" />
  <defs
     id="defs4">
    <style
       type="text/css"
       id="style2"><![CDATA[
    .svglite line, .svglite polyline, .svglite polygon, .svglite path, .svglite rect, .svglite circle {
      fill: none;
      stroke: #000000;
      stroke-linecap: round;
      stroke-linejoin: round;
      stroke-miterlimit: 10.00;
    }
    .svglite text {
      white-space: pre;
    }
  ]]></style>
  </defs>
  <rect
     style="fill:#ffffff;fill-rule:evenodd;stroke:#ffffff;stroke-width:0.283702;paint-order:fill markers stroke;stop-color:#000000"
     id="rect1499"
     width="362.2655"
     height="472.5"
     x="2.6497127e-10"
     y="-239.95212"
     sodipodi:insensitive="true" />
  <defs
     id="defs11">
    <clipPath
       id="cpMC4wMHwzNjIuMjV8MC4wMHw0NzIuNTA=">
      <rect
         x="0"
         y="0"
         width="362.25"
         height="472.5"
         id="rect8" />
    </clipPath>
  </defs>
  <g
     clip-path="url(#cpMC4wMHwzNjIuMjV8MC4wMHw0NzIuNTA=)"
     id="g13"
     transform="translate(0,-239.95211)" />
  <defs
     id="defs18">
    <clipPath
       id="cpMC4wMHwzNjIuMjV8MC43OXw0NzEuNzE=">
      <rect
         x="0"
         y="0.79000002"
         width="362.25"
         height="470.92999"
         id="rect15" />
    </clipPath>
  </defs>
  <g
     clip-path="url(#cpMC4wMHwzNjIuMjV8MC43OXw0NzEuNzE=)"
     id="g20"
     transform="translate(0,-239.95211)" />
  <defs
     id="defs45">
    <clipPath
       id="cpMC4wMHwzNjIuMjV8MzQuMDF8NDcxLjcx">
      <rect
         x="0"
         y="34.009998"
         width="362.25"
         height="437.70001"
         id="rect42" />
    </clipPath>
  </defs>
  <g
     clip-path="url(#cpMC4wMHwzNjIuMjV8MzQuMDF8NDcxLjcx)"
     id="g47"
     transform="translate(0,-239.95211)" />
  <g
     clip-path="url(#cpMC4wMHwzNjIuMjV8MC4wMHw0NzIuNTA=)"
     id="g49"
     transform="translate(0,-239.95211)" />
  <defs
     id="defs54">
    <clipPath
       id="cpMC4wMHwzNjIuMjV8MzQuMDF8MjUyLjg2">
      <rect
         x="0"
         y="34.009998"
         width="362.25"
         height="218.85001"
         id="rect51" />
    </clipPath>
  </defs>
  <g
     clip-path="url(#cpMC4wMHwzNjIuMjV8MC4wMHw0NzIuNTA=)"
     id="g60"
     transform="translate(0,-239.95211)" />
  <defs
     id="defs65">
    <clipPath
       id="cpMTY4Ljc3fDM1NC4yOHw0MS45OHwyMDEuMjg=">
      <rect
         x="168.77"
         y="41.98"
         width="185.50999"
         height="159.3"
         id="rect62" />
    </clipPath>
  </defs>
  <defs
     id="defs192">
    <clipPath
       id="cpMC4wMHwzNjIuMjV8MjUyLjg2fDQ3MS43MQ==">
      <rect
         x="0"
         y="252.86"
         width="362.25"
         height="218.85001"
         id="rect189" />
    </clipPath>
  </defs>
  <g
     clip-path="url(#cpMC4wMHwzNjIuMjV8MjUyLjg2fDQ3MS43MQ==)"
     id="g196"
     transform="translate(0,-239.95211)">
    <rect
       x="0"
       y="252.86"
       width="362.25"
       height="218.85001"
       style="fill:#ffffff;stroke:#ffffff;stroke-width:1.55"
       id="rect194" />
  </g>
  <g
     clip-path="url(#cpMC4wMHwzNjIuMjV8MC4wMHw0NzIuNTA=)"
     id="g198"
     transform="translate(0,-239.95211)" />
  <defs
     id="defs203">
    <clipPath
       id="cpNzYuOTl8MzU0LjI4fDI2MC44M3w0MjUuNTk=">
      <rect
         x="76.989998"
         y="260.82999"
         width="277.29001"
         height="164.75999"
         id="rect200" />
    </clipPath>
  </defs>
  <g
     clip-path="url(#cpNzYuOTl8MzU0LjI4fDI2MC44M3w0MjUuNTk=)"
     id="g251"
     transform="translate(0,-239.95211)">
    <rect
       x="76.989998"
       y="260.82999"
       width="277.29001"
       height="164.75999"
       style="fill:#ffffff;stroke:none;stroke-width:1.55"
       id="rect205" />
    <polyline
       points="76.99,416.27 354.28,416.27 "
       style="stroke:#ebebeb;stroke-width:0.78;stroke-linecap:butt"
       id="polyline207" />
    <polyline
       points="76.99,370.35 354.28,370.35 "
       style="stroke:#ebebeb;stroke-width:0.78;stroke-linecap:butt"
       id="polyline209" />
    <polyline
       points="76.99,324.44 354.28,324.44 "
       style="stroke:#ebebeb;stroke-width:0.78;stroke-linecap:butt"
       id="polyline211" />
    <polyline
       points="76.99,278.52 354.28,278.52 "
       style="stroke:#ebebeb;stroke-width:0.78;stroke-linecap:butt"
       id="polyline213" />
    <polyline
       points="77.93,425.59 77.93,260.83 "
       style="stroke:#ebebeb;stroke-width:0.78;stroke-linecap:butt"
       id="polyline215" />
    <polyline
       points="136.51,425.59 136.51,260.83 "
       style="stroke:#ebebeb;stroke-width:0.78;stroke-linecap:butt"
       id="polyline217" />
    <polyline
       points="195.09,425.59 195.09,260.83 "
       style="stroke:#ebebeb;stroke-width:0.78;stroke-linecap:butt"
       id="polyline219" />
    <polyline
       points="253.67,425.59 253.67,260.83 "
       style="stroke:#ebebeb;stroke-width:0.78;stroke-linecap:butt"
       id="polyline221" />
    <polyline
       points="312.25,425.59 312.25,260.83 "
       style="stroke:#ebebeb;stroke-width:0.78;stroke-linecap:butt"
       id="polyline223" />
    <polyline
       points="76.99,393.31 354.28,393.31 "
       style="stroke:#ebebeb;stroke-width:1.55;stroke-linecap:butt"
       id="polyline225" />
    <polyline
       points="76.99,347.39 354.28,347.39 "
       style="stroke:#ebebeb;stroke-width:1.55;stroke-linecap:butt"
       id="polyline227" />
    <polyline
       points="76.99,301.48 354.28,301.48 "
       style="stroke:#ebebeb;stroke-width:1.55;stroke-linecap:butt"
       id="polyline229" />
    <polyline
       points="107.22,425.59 107.22,260.83 "
       style="stroke:#ebebeb;stroke-width:1.55;stroke-linecap:butt"
       id="polyline231" />
    <polyline
       points="165.80,425.59 165.80,260.83 "
       style="stroke:#ebebeb;stroke-width:1.55;stroke-linecap:butt"
       id="polyline233" />
    <polyline
       points="224.38,425.59 224.38,260.83 "
       style="stroke:#ebebeb;stroke-width:1.55;stroke-linecap:butt"
       id="polyline235" />
    <polyline
       points="282.96,425.59 282.96,260.83 "
       style="stroke:#ebebeb;stroke-width:1.55;stroke-linecap:butt"
       id="polyline237" />
    <polyline
       points="341.55,425.59 341.55,260.83 "
       style="stroke:#ebebeb;stroke-width:1.55;stroke-linecap:butt"
       id="polyline239" />
    <polyline
       points="89.59,279.57 98.44,282.36 104.35,284.36 110.25,286.49 119.10,289.91 125.00,292.35 127.53,293.43 142.28,300.22 145.24,301.67 157.04,307.79 159.99,309.39 162.94,311.03 165.89,312.69 168.84,314.37 171.79,316.09 177.69,319.58 180.64,321.37 183.17,322.92 186.13,324.74 189.08,326.58 192.03,328.44 194.98,330.32 197.93,332.21 203.83,336.04 206.78,337.96 209.73,339.90 212.68,341.84 215.63,343.79 218.58,345.74 221.53,347.69 224.49,349.64 227.44,351.59 230.39,353.54 233.34,355.48 236.29,357.41 238.82,359.06 241.77,360.98 244.72,362.88 247.67,364.77 250.62,366.65 253.57,368.50 256.52,370.34 259.47,372.16 262.42,373.96 265.38,375.74 268.33,377.50 271.28,379.23 274.23,380.93 277.18,382.61 280.13,384.26 283.08,385.89 286.03,387.48 288.98,389.05 291.93,390.58 294.88,392.09 297.41,393.35 300.36,394.80 303.31,396.22 306.27,397.60 309.22,398.96 312.17,400.28 315.12,401.57 318.07,402.82 321.02,404.05 323.97,405.24 326.92,406.40 329.87,407.53 332.82,408.63 335.77,409.70 338.72,410.74 341.68,411.75 "
       style="stroke-width:1.49;stroke-linecap:butt"
       id="polyline241" />
    <polygon
       points="227.44,341.34 230.39,343.65 233.34,345.96 236.29,348.26 238.82,350.22 241.77,352.48 244.72,354.72 247.67,356.92 250.62,359.1 253.57,361.23 256.52,363.32 259.47,365.37 262.42,367.36 265.38,369.31 268.33,371.19 271.28,373.03 274.23,374.8 277.18,376.52 280.13,378.19 283.08,379.8 286.03,381.36 288.98,382.87 291.93,384.34 294.88,385.76 297.41,386.95 300.36,388.29 303.31,389.6 306.27,390.87 309.22,392.11 312.17,393.32 315.12,394.5 318.07,395.65 321.02,396.77 323.97,397.86 326.92,398.93 329.87,399.97 332.82,400.99 335.77,401.98 338.72,402.95 341.68,403.9 341.68,418.1 338.72,417.11 335.77,416.08 332.82,415.01 329.87,413.9 326.92,412.75 323.97,411.56 321.02,410.34 318.07,409.07 315.12,407.77 312.17,406.43 309.22,405.05 306.27,403.64 303.31,402.2 300.36,400.72 297.41,399.21 294.88,397.9 291.93,396.35 288.98,394.78 286.03,393.19 283.08,391.59 280.13,389.97 277.18,388.36 274.23,386.73 271.28,385.11 268.33,383.5 265.38,381.88 262.42,380.28 259.47,378.68 256.52,377.09 253.57,375.51 250.62,373.93 247.67,372.36 244.72,370.8 241.77,369.25 238.82,367.69 236.29,366.37 233.34,364.82 230.39,363.28 227.44,361.75 224.49,360.21 221.53,358.68 218.58,357.15 215.63,355.62 212.68,354.1 209.73,352.58 206.78,351.06 203.83,349.55 197.93,346.53 194.98,345.03 192.03,343.53 189.08,342.04 186.13,340.55 183.17,339.07 180.64,337.81 177.69,336.34 171.79,333.43 168.84,331.99 165.89,330.56 162.94,329.14 159.99,327.73 157.04,326.33 145.24,320.85 142.28,319.51 127.53,313.04 125,311.97 119.1,309.51 110.25,305.95 104.35,303.66 98.44,301.44 89.59,298.25 89.59,268.32 98.44,270.36 104.35,271.87 110.25,273.53 119.1,276.29 125,278.33 127.53,279.25 142.28,285.3 145.24,286.65 157.04,292.52 159.99,294.11 162.94,295.74 165.89,297.43 168.84,299.16 171.79,300.94 177.69,304.65 180.64,306.56 183.17,308.24 186.13,310.24 189.08,312.28 192.03,314.36 194.98,316.47 197.93,318.62 203.83,323.01 206.78,325.24 209.73,327.5 212.68,329.78 215.63,332.07 218.58,334.38 221.53,336.69 224.49,339.02 "
       style="fill:#333333;fill-opacity:0.15;stroke:none;stroke-width:0"
       id="polygon243" />
    <polyline
       points="89.59,268.32 98.44,270.36 104.35,271.87 110.25,273.53 119.10,276.29 125.00,278.33 127.53,279.25 142.28,285.30 145.24,286.65 157.04,292.52 159.99,294.11 162.94,295.74 165.89,297.43 168.84,299.16 171.79,300.94 177.69,304.65 180.64,306.56 183.17,308.24 186.13,310.24 189.08,312.28 192.03,314.36 194.98,316.47 197.93,318.62 203.83,323.01 206.78,325.24 209.73,327.50 212.68,329.78 215.63,332.07 218.58,334.38 221.53,336.69 224.49,339.02 227.44,341.34 230.39,343.65 233.34,345.96 236.29,348.26 238.82,350.22 241.77,352.48 244.72,354.72 247.67,356.92 250.62,359.10 253.57,361.23 256.52,363.32 259.47,365.37 262.42,367.36 265.38,369.31 268.33,371.19 271.28,373.03 274.23,374.80 277.18,376.52 280.13,378.19 283.08,379.80 286.03,381.36 288.98,382.87 291.93,384.34 294.88,385.76 297.41,386.95 300.36,388.29 303.31,389.60 306.27,390.87 309.22,392.11 312.17,393.32 315.12,394.50 318.07,395.65 321.02,396.77 323.97,397.86 326.92,398.93 329.87,399.97 332.82,400.99 335.77,401.98 338.72,402.95 341.68,403.90 "
       style="stroke:none;stroke-width:1.07"
       id="polyline245" />
    <polyline
       points="341.68,418.10 338.72,417.11 335.77,416.08 332.82,415.01 329.87,413.90 326.92,412.75 323.97,411.56 321.02,410.34 318.07,409.07 315.12,407.77 312.17,406.43 309.22,405.05 306.27,403.64 303.31,402.20 300.36,400.72 297.41,399.21 294.88,397.90 291.93,396.35 288.98,394.78 286.03,393.19 283.08,391.59 280.13,389.97 277.18,388.36 274.23,386.73 271.28,385.11 268.33,383.50 265.38,381.88 262.42,380.28 259.47,378.68 256.52,377.09 253.57,375.51 250.62,373.93 247.67,372.36 244.72,370.80 241.77,369.25 238.82,367.69 236.29,366.37 233.34,364.82 230.39,363.28 227.44,361.75 224.49,360.21 221.53,358.68 218.58,357.15 215.63,355.62 212.68,354.10 209.73,352.58 206.78,351.06 203.83,349.55 197.93,346.53 194.98,345.03 192.03,343.53 189.08,342.04 186.13,340.55 183.17,339.07 180.64,337.81 177.69,336.34 171.79,333.43 168.84,331.99 165.89,330.56 162.94,329.14 159.99,327.73 157.04,326.33 145.24,320.85 142.28,319.51 127.53,313.04 125.00,311.97 119.10,309.51 110.25,305.95 104.35,303.66 98.44,301.44 89.59,298.25 "
       style="stroke:none;stroke-width:1.07"
       id="polyline247" />
    <rect
       x="76.989998"
       y="260.82999"
       width="277.29001"
       height="164.75999"
       style="stroke:#333333;stroke-width:1.55"
       id="rect249" />
  </g>
  <g
     clip-path="url(#cpMC4wMHwzNjIuMjV8MC4wMHw0NzIuNTA=)"
     id="g293"
     transform="translate(0,-239.95211)">
    <text
       x="69.809998"
       y="397.89001"
       text-anchor="end"
       style="font-size:12.8px;font-family:Arial;fill:#4d4d4d"
       textLength="25.6"
       lengthAdjust="spacingAndGlyphs"
       id="text253">25%</text>
    <text
       x="69.809998"
       y="351.97"
       text-anchor="end"
       style="font-size:12.8px;font-family:Arial;fill:#4d4d4d"
       textLength="25.6"
       lengthAdjust="spacingAndGlyphs"
       id="text255">50%</text>
    <text
       x="69.809998"
       y="306.06"
       text-anchor="end"
       style="font-size:12.8px;font-family:Arial;fill:#4d4d4d"
       textLength="25.6"
       lengthAdjust="spacingAndGlyphs"
       id="text257">75%</text>
    <polyline
       points="73.00,393.31 76.99,393.31 "
       style="stroke:#333333;stroke-width:1.55;stroke-linecap:butt"
       id="polyline259" />
    <polyline
       points="73.00,347.39 76.99,347.39 "
       style="stroke:#333333;stroke-width:1.55;stroke-linecap:butt"
       id="polyline261" />
    <polyline
       points="73.00,301.48 76.99,301.48 "
       style="stroke:#333333;stroke-width:1.55;stroke-linecap:butt"
       id="polyline263" />
    <polyline
       points="107.22,429.58 107.22,425.59 "
       style="stroke:#333333;stroke-width:1.55;stroke-linecap:butt"
       id="polyline265" />
    <polyline
       points="165.80,429.58 165.80,425.59 "
       style="stroke:#333333;stroke-width:1.55;stroke-linecap:butt"
       id="polyline267" />
    <polyline
       points="224.38,429.58 224.38,425.59 "
       style="stroke:#333333;stroke-width:1.55;stroke-linecap:butt"
       id="polyline269" />
    <polyline
       points="282.96,429.58 282.96,425.59 "
       style="stroke:#333333;stroke-width:1.55;stroke-linecap:butt"
       id="polyline271" />
    <polyline
       points="341.55,429.58 341.55,425.59 "
       style="stroke:#333333;stroke-width:1.55;stroke-linecap:butt"
       id="polyline273" />
    <text
       x="107.22"
       y="441.92001"
       text-anchor="middle"
       style="font-size:12.8px;font-family:Arial;fill:#4d4d4d"
       textLength="28.450001"
       lengthAdjust="spacingAndGlyphs"
       id="text275">1940</text>
    <text
       x="165.8"
       y="441.92001"
       text-anchor="middle"
       style="font-size:12.8px;font-family:Arial;fill:#4d4d4d"
       textLength="28.450001"
       lengthAdjust="spacingAndGlyphs"
       id="text277">1960</text>
    <text
       x="224.38"
       y="441.92001"
       text-anchor="middle"
       style="font-size:12.8px;font-family:Arial;fill:#4d4d4d"
       textLength="28.450001"
       lengthAdjust="spacingAndGlyphs"
       id="text279">1980</text>
    <text
       x="282.95999"
       y="441.92001"
       text-anchor="middle"
       style="font-size:12.8px;font-family:Arial;fill:#4d4d4d"
       textLength="28.450001"
       lengthAdjust="spacingAndGlyphs"
       id="text281">2000</text>
    <text
       x="341.54999"
       y="441.92001"
       text-anchor="middle"
       style="font-size:12.8px;font-family:Arial;fill:#4d4d4d"
       textLength="28.450001"
       lengthAdjust="spacingAndGlyphs"
       id="text283">2020</text>
    <text
       x="215.63"
       y="460.22"
       text-anchor="middle"
       style="font-size:16px;font-family:Arial"
       textLength="128.14"
       lengthAdjust="spacingAndGlyphs"
       id="text285">Ano de criação da UC</text>
    <text
       transform="matrix(0,-1.9574878,1,0,20.317405,344.25107)"
       text-anchor="middle"
       style="font-size:16px;font-family:Arial"
       textLength="167.2"
       lengthAdjust="spacingAndGlyphs"
       id="text287"><tspan
         sodipodi:role="line"
         id="tspan3322"
         x="-1.5001146e-06"
         y="0">Probabilidade da UC </tspan><tspan
         sodipodi:role="line"
         id="tspan3324"
         x="-2.3145826e-06"
         y="20">possuir plano de manejo</tspan></text>
    <text
       transform="rotate(-90,189.96,153.25)"
       text-anchor="middle"
       style="font-size:16px;font-family:Arial"
       textLength="197.47"
       lengthAdjust="spacingAndGlyphs"
       id="text289" />
  </g>
</svg>
